<?xml version="1.0" standalone="no"?>
<!DOCTYPE svg PUBLIC "-//W3C//DTD SVG 20010904//EN"
 "http://www.w3.org/TR/2001/REC-SVG-20010904/DTD/svg10.dtd">
<svg version="1.0" xmlns="http://www.w3.org/2000/svg"
 width="699.000000pt" height="811.000000pt" viewBox="0 0 699.000000 811.000000"
 preserveAspectRatio="xMidYMid meet">

<g transform="translate(0.000000,811.000000) scale(0.100000,-0.100000)"
fill="#000000" stroke="none">
<path d="M0 4055 l0 -4055 3495 0 3495 0 0 4055 0 4055 -3495 0 -3495 0 0
-4055z m3355 1486 c167 -15 -669 -27 -935 -13 -140 7 -142 7 -65 13 111 8 914
8 1000 0z m895 -211 l0 -220 -187 0 c-104 0 -195 5 -203 10 -10 6 50 10 178
10 l192 0 -2 197 -3 197 -40 2 c-22 1 -110 3 -195 4 -187 4 -112 15 118 18
l142 2 0 -220z m-1984 183 c-10 -10 -19 5 -10 18 6 11 8 11 12 0 2 -7 1 -15
-2 -18z m1039 -12 l110 -6 -75 -9 c-41 -4 -290 -6 -552 -4 l-478 3 -3 -1055
-2 -1055 -3 1062 -2 1062 68 4 c120 6 824 5 937 -2z m903 -168 l2 -173 -187 2
c-198 2 -185 6 32 10 l130 3 3 153 3 152 -114 0 c-63 0 -143 3 -178 8 l-64 7
85 6 c47 3 130 5 185 5 l100 -1 3 -172z m-1938 -898 c0 -580 -3 -1055 -7
-1055 -5 0 -7 475 -5 1055 1 580 4 1055 7 1055 3 0 5 -475 5 -1055z m1045 975
c61 -4 -100 -8 -412 -8 l-513 -2 -3 -967 -2 -968 -3 972 -2 972 93 4 c173 6
742 5 842 -3z m803 -82 l3 -88 -178 1 c-125 1 -163 4 -128 9 28 5 103 9 168 9
l118 1 -3 68 -3 67 -180 5 -180 5 115 6 c63 3 149 5 190 5 l75 -1 3 -87z
m-748 41 l45 -2 -55 -7 c-30 -5 -250 -8 -488 -9 l-432 -1 2 -932 3 -933 35 0
35 0 3 466 2 467 28 3 c35 5 879 -5 872 -10 -3 -2 -201 -7 -440 -10 l-435 -6
-3 -455 c-1 -250 -4 -460 -7 -467 -4 -11 -25 -12 -92 -4 -10 1 -13 198 -13
950 l0 950 33 4 c28 4 783 1 907 -4z m710 -39 l0 -40 -132 2 -133 2 120 6
c113 5 120 6 123 27 3 23 15 20 -183 36 -22 2 15 4 83 5 l122 2 0 -40z m-835
-40 c-110 -4 -313 -8 -451 -9 l-251 -1 1 -392 1 -393 435 -5 c334 -4 411 -7
330 -13 -58 -5 -258 -7 -445 -5 l-340 3 -3 413 -2 412 462 -2 c379 -1 427 -3
263 -8z m96 -39 c37 -6 -75 -9 -348 -10 l-403 -1 0 -350 0 -350 353 -1 c193 0
370 -4 392 -8 24 -5 -124 -9 -368 -10 l-407 -1 2 368 3 367 35 5 c58 8 683 1
741 -9z m-101 -81 l205 -6 -145 -3 c-80 -1 -253 -4 -385 -7 l-240 -5 0 -262 0
-262 370 -5 c216 -3 355 -8 335 -13 -19 -4 -190 -6 -380 -5 l-345 3 -3 275
c-1 151 0 280 3 287 5 14 218 16 585 3z m145 -50 c-4 -6 -127 -10 -336 -10
l-329 0 0 -220 0 -220 213 -1 c116 -1 275 -5 352 -8 109 -6 58 -8 -227 -9
l-367 -2 0 232 c0 127 2 235 5 240 3 4 160 8 350 8 228 0 343 -3 339 -10z
m-10 -750 c-11 -5 -192 -9 -402 -9 l-383 -1 -2 -467 -3 -468 -52 -3 c-32 -2
-53 1 -53 7 0 6 18 11 40 11 l40 0 0 470 0 470 418 -1 c242 0 409 -4 397 -9z
m14 -90 c10 -6 -114 -9 -351 -10 l-368 0 0 -465 0 -465 -185 0 c-124 0 -185 4
-185 11 0 5 5 7 11 3 6 -3 85 -3 175 1 l164 7 0 462 c0 255 3 466 8 471 10 11
711 -3 731 -15z m27 -37 c-4 -5 -161 -10 -349 -13 l-342 -5 -3 -467 -2 -468
-163 1 c-89 0 -180 4 -202 8 -28 6 12 9 135 11 96 1 181 2 188 1 15 -2 15 -17
13 512 l-1 427 367 0 c201 0 363 -3 359 -7z m458 -188 c87 -8 160 -16 161 -17
7 -7 -973 3 -1005 9 -32 7 -29 8 30 13 137 13 654 10 814 -5z m-907 -1657 c-1
-299 -2 -55 -2 542 0 597 1 841 2 543 2 -299 2 -787 0 -1085z m986 1609 c39
-10 -37 -11 -425 -9 -260 2 -489 7 -508 12 -20 5 158 8 425 9 334 0 473 -3
508 -12z m-8 -87 c34 -4 -144 -8 -410 -8 l-470 0 -3 -977 -2 -977 470 4 c310
2 458 0 433 -6 -21 -6 -234 -10 -473 -10 l-435 -1 -3 993 -2 992 417 -1 c230
-1 445 -5 478 -9z m45 -47 c25 -5 -163 -7 -417 -5 l-463 4 0 -926 c0 -734 -3
-926 -12 -926 -10 0 -12 192 -10 936 l2 936 428 -6 c235 -3 447 -9 472 -13z
m451 -10 c13 -16 12 -17 -3 -4 -17 13 -22 21 -14 21 2 0 10 -8 17 -17z m32
-82 c21 -20 58 -61 81 -91 42 -54 116 -183 116 -201 0 -5 9 -28 20 -52 21 -45
56 -199 70 -312 27 -208 -1 -481 -66 -660 -27 -72 -101 -226 -114 -235 -4 -3
-19 -23 -33 -45 -25 -39 -53 -70 -99 -110 -48 -41 -62 -46 -23 -8 122 120 189
230 251 408 47 136 66 274 66 475 0 255 -37 438 -124 605 -28 53 -91 151 -107
165 -3 3 -28 30 -56 59 -54 58 -43 59 18 2z m-505 22 c18 -4 -145 -6 -362 -5
l-396 4 2 -864 3 -863 320 0 c176 0 353 3 394 7 97 9 85 1 -25 -17 -64 -11
-176 -15 -401 -15 l-313 0 -2 881 c-2 484 -1 883 2 886 8 8 741 -5 778 -14z
m657 -138 c18 -27 42 -68 52 -90 10 -22 21 -42 24 -45 4 -3 14 -27 22 -55 9
-27 23 -70 32 -94 28 -78 55 -287 55 -434 0 -358 -94 -644 -279 -849 -29 -32
-66 -67 -84 -80 -23 -16 -18 -9 17 27 52 52 156 186 156 200 0 5 6 16 13 24
23 27 84 182 111 276 31 112 46 247 46 407 0 125 -22 334 -38 366 -5 9 -15 42
-22 71 -19 82 -113 277 -150 311 -19 19 -90 110 -90 117 1 13 98 -97 135 -152z
m-794 105 c68 -6 140 -15 159 -20 32 -9 31 -9 -10 -4 -60 8 -679 14 -707 7
l-23 -5 0 -814 0 -814 238 -2 c260 -3 351 -1 427 7 38 5 47 3 38 -6 -17 -17
-197 -28 -475 -28 l-248 -1 0 845 0 845 239 0 c131 0 294 -5 362 -10z m629
-104 c82 -97 128 -187 169 -329 85 -291 63 -675 -53 -931 -13 -28 -25 -55 -27
-61 -9 -22 -74 -115 -81 -115 -5 0 12 33 37 72 25 40 45 76 45 80 0 5 9 27 20
51 29 65 70 220 82 316 6 49 8 162 5 261 -7 248 -47 394 -155 575 -20 33 -41
65 -47 70 -24 23 -49 58 -35 50 8 -5 26 -22 40 -39z m-492 9 c17 -4 32 -12 32
-17 0 -6 -7 -7 -17 -2 -10 5 -159 10 -330 12 l-313 3 0 -737 0 -736 303 5
c166 3 316 8 332 11 25 5 27 5 8 -3 -41 -18 -267 -32 -468 -29 l-200 3 -3 753
-2 754 312 -5 c172 -3 328 -9 346 -12z m-131 -35 c72 -6 142 -14 155 -19 15
-6 -3 -7 -52 -3 -41 4 -183 7 -315 7 l-240 0 -3 -688 -2 -689 305 4 c266 3
298 1 248 -10 -33 -7 -170 -15 -315 -19 l-258 -6 0 717 0 716 173 0 c94 0 231
-5 304 -10z m613 -45 c0 -5 -5 -3 -10 5 -5 8 -10 20 -10 25 0 6 5 3 10 -5 5
-8 10 -19 10 -25z m73 -108 c26 -51 47 -100 47 -108 0 -8 4 -19 9 -24 15 -15
38 -148 52 -292 10 -105 10 -154 0 -245 -17 -155 -37 -256 -61 -305 -11 -23
-20 -49 -20 -58 0 -18 -51 -112 -92 -169 -15 -21 -28 -34 -28 -28 0 6 11 23
24 39 27 33 89 168 106 233 7 25 16 54 21 65 34 82 47 472 20 610 -19 99 -63
229 -105 308 -19 37 -32 67 -28 67 4 0 29 -42 55 -93z m-85 -58 c-3 -8 -7 -3
-11 10 -4 17 -3 21 5 13 5 -5 8 -16 6 -23z m-1973 1 c-3 -5 -16 -10 -28 -9
-20 1 -20 2 3 9 14 4 26 8 28 9 2 1 0 -3 -3 -9z m1989 -196 c29 -143 39 -280
27 -389 -8 -74 -8 -68 -10 81 -1 153 -16 281 -46 397 -7 27 -8 44 -4 40 5 -5
20 -63 33 -129z m-2182 91 c3 -14 1 -25 -3 -25 -5 0 -9 11 -9 25 0 14 2 25 4
25 2 0 6 -11 8 -25z m2222 -51 c28 -133 39 -314 27 -452 -11 -122 -38 -278
-47 -269 -2 2 4 42 13 88 25 117 24 498 0 614 -18 84 -20 101 -12 94 2 -3 11
-36 19 -75z m-1894 -183 c-8 -5 -40 -12 -70 -16 -50 -7 -53 -6 -41 9 10 11 30
16 70 16 36 -1 51 -4 41 -9z m120 -93 l0 -103 -64 -3 c-56 -2 -64 0 -62 15 2
10 15 20 32 24 16 4 41 10 57 13 20 5 27 12 27 31 0 28 -15 30 -105 16 -27 -5
-59 -5 -70 -1 -19 7 -19 7 2 18 18 10 37 16 138 41 22 5 30 13 29 29 0 12 3
22 8 22 4 0 8 -46 8 -102z m1667 50 c-3 -8 -6 -5 -6 6 -1 11 2 17 5 13 3 -3 4
-12 1 -19z m-2087 -107 c0 -3 -11 -11 -25 -18 -23 -10 -25 -9 -25 12 0 18 4
21 25 17 14 -2 25 -7 25 -11z m53 -91 c4 -15 -3 -20 -37 -25 -22 -4 -47 -12
-53 -17 -10 -8 -13 -2 -13 23 0 34 1 34 49 36 40 1 50 -2 54 -17z m2034 -12
c-3 -7 -5 -2 -5 12 0 14 2 19 5 13 2 -7 2 -19 0 -25z m-1671 -23 c-7 -19 -62
-20 -69 -1 -4 10 5 17 31 23 38 9 48 3 38 -22z m-296 -53 c0 -19 -27 -31 -93
-43 -64 -12 -67 -14 -67 -41 0 -15 3 -28 8 -28 4 0 45 7 91 15 82 15 127 13
116 -5 -7 -11 -84 -36 -157 -50 -52 -10 -58 -14 -58 -37 0 -24 1 -25 53 -18
28 4 79 13 112 19 42 9 68 10 83 3 35 -16 26 -25 -35 -37 -32 -7 -76 -16 -98
-22 -22 -5 -56 -13 -75 -16 -29 -6 -36 -12 -38 -35 -4 -30 2 -32 63 -16 22 5
76 17 120 24 151 28 143 27 141 8 -1 -19 -41 -37 -104 -47 -20 -3 -79 -16
-129 -28 -86 -20 -93 -24 -93 -46 0 -21 4 -24 28 -19 269 48 331 57 351 52 13
-3 20 -10 15 -15 -12 -10 -135 -43 -244 -64 -123 -25 -151 -36 -148 -61 2 -11
10 -19 18 -18 38 5 289 53 325 62 64 17 97 14 93 -6 -2 -13 -20 -22 -63 -31
-33 -7 -82 -19 -110 -27 -27 -7 -90 -21 -140 -30 -123 -22 -125 -23 -125 -51
0 -13 2 -24 5 -24 2 0 97 18 210 40 243 47 245 47 245 18 0 -18 -6 -23 -27
-24 -16 -1 -80 -13 -143 -28 -63 -14 -154 -34 -202 -43 -81 -15 -88 -18 -88
-40 0 -17 6 -23 23 -23 32 0 137 20 162 30 23 10 197 40 231 40 13 0 28 8 34
18 8 13 10 8 8 -25 -1 -23 -5 -40 -10 -37 -8 5 -177 -26 -303 -55 -44 -11 -97
-22 -117 -25 l-38 -5 0 397 0 397 85 3 c47 1 85 -1 85 -6z m2045 -49 c-16 -96
-38 -184 -48 -190 -5 -3 -7 -1 -4 4 5 8 47 205 47 221 0 1 2 2 5 2 3 0 3 -17
0 -37z m-14 -214 c-5 -13 -10 -19 -10 -12 -1 15 10 45 15 40 3 -2 0 -15 -5
-28z m-19 -61 c-8 -8 -9 -4 -5 13 4 13 8 18 11 10 2 -7 -1 -18 -6 -23z m11
-242 c-10 -13 -19 -23 -21 -21 -5 5 22 45 31 45 4 0 0 -11 -10 -24z m-33 -36
c0 -5 -5 -10 -11 -10 -5 0 -7 5 -4 10 3 6 8 10 11 10 2 0 4 -4 4 -10z m-1690
-234 l0 -115 -207 0 -208 0 55 19 c30 10 107 27 170 39 167 30 174 32 178 66
3 25 1 27 -20 21 -13 -4 -68 -16 -123 -27 -55 -11 -127 -26 -160 -34 -33 -7
-81 -17 -107 -20 -46 -7 -48 -6 -48 17 0 15 6 24 18 25 9 1 78 15 152 32 74
16 168 35 209 41 58 10 75 16 78 31 10 38 13 17 13 -95z m1250 76 c-62 -22
-880 -31 -880 -10 0 11 75 12 403 10 225 -1 420 1 442 7 63 14 84 11 35 -7z
m5 -134 c-39 -13 -803 -23 -893 -12 -47 6 72 11 398 14 256 3 479 6 495 7 l30
1 -30 -10z m0 -41 c-23 -14 -995 -24 -981 -10 4 4 227 10 494 14 268 3 492 6
497 7 6 1 1 -4 -10 -11z"/>
<path d="M2633 1839 c-47 -14 -41 -19 22 -19 42 0 55 3 55 15 0 17 -27 18 -77
4z"/>
</g>
</svg>
