<?xml version="1.0" standalone="no"?>
<!DOCTYPE svg PUBLIC "-//W3C//DTD SVG 20010904//EN"
 "http://www.w3.org/TR/2001/REC-SVG-20010904/DTD/svg10.dtd">
<svg version="1.0" xmlns="http://www.w3.org/2000/svg"
 width="464.000000pt" height="538.000000pt" viewBox="0 0 464.000000 538.000000"
 preserveAspectRatio="xMidYMid meet">

<g transform="translate(0.000000,538.000000) scale(0.100000,-0.100000)"
fill="#000000" stroke="none">
<path d="M2160 3667 c-118 -4 -313 -6 -432 -3 l-218 5 0 -741 0 -741 83 6 c45
4 108 7 140 7 l57 0 0 311 0 312 323 -4 322 -4 0 140 0 140 -50 -2 c-27 -1
-173 -5 -322 -9 l-273 -7 0 162 0 161 510 0 510 0 0 129 c0 121 -1 129 -20
134 -11 3 -91 6 -178 7 -86 1 -175 2 -197 3 -22 1 -137 -2 -255 -6z m-72 -24
c-104 -2 -272 -2 -375 0 -104 1 -19 2 187 2 206 0 291 -1 188 -2z m702 -108
l0 -115 -122 2 -123 2 118 3 117 4 0 104 0 104 -117 4 -118 3 123 2 122 2 0
-115z m-693 48 c-98 -2 -256 -2 -350 0 -95 1 -14 3 178 2 193 0 270 -1 172 -2z
m636 -52 c-1 -29 -3 -54 -5 -56 -2 -1 -41 1 -88 5 l-85 7 83 1 82 2 0 45 0 44
-122 4 -123 3 130 -1 130 0 -2 -54z m-593 29 c86 -5 35 -7 -202 -8 l-318 -2 0
-620 0 -620 25 0 25 0 0 309 c0 286 1 309 18 312 9 2 141 2 292 -1 l275 -5
-282 -3 -283 -2 0 -310 0 -310 -40 0 -40 0 0 629 0 630 23 4 c35 7 380 5 507
-3z m570 -25 c0 -19 -5 -25 -21 -25 -19 0 -20 1 -3 18 17 16 14 17 -52 23
l-69 5 73 2 c71 2 72 2 72 -23z m-595 -26 c-49 -4 -165 -7 -257 -8 l-168 -1 0
-260 0 -260 293 -3 292 -2 -302 -3 -303 -2 0 268 c0 148 3 272 7 275 3 4 124
6 267 5 196 -1 239 -3 171 -9z m15 -30 c-47 -4 -158 -7 -247 -8 -156 -1 -163
-2 -163 -21 0 -19 7 -20 283 -22 l282 -2 -255 -6 -255 -5 -3 -164 c-1 -91 1
-168 5 -172 5 -3 116 -10 248 -14 324 -10 379 -15 383 -38 2 -10 -4 -29 -13
-44 l-17 -25 -26 25 c-15 14 -46 31 -69 38 -24 7 -43 16 -43 21 0 4 -86 8
-191 8 -108 0 -188 -4 -185 -9 3 -5 -4 -11 -17 -15 -74 -20 -87 0 -88 132 -1
69 -4 93 -8 67 -4 -24 -11 -39 -19 -37 -9 1 -12 -22 -12 -88 l0 -90 258 -3
257 -2 -267 -3 -268 -2 0 245 0 245 258 -2 c191 -1 235 -3 172 -9z m268 -608
c-3 -23 -7 -26 -41 -25 -59 2 -66 17 -26 56 34 33 34 34 52 14 10 -11 17 -31
15 -45z m-420 22 l-258 -3 -2 -308 -3 -307 -35 -1 c-26 -1 -28 -1 -7 3 l27 4
0 310 0 309 268 -2 267 -3 -257 -2z m-133 -33 c4 -6 72 -10 168 -11 89 0 182
-4 207 -8 29 -6 -44 -9 -202 -10 l-248 -1 0 -310 0 -310 -87 1 c-95 1 -75 16
25 18 l52 1 0 308 0 307 23 11 c29 15 54 16 62 4z"/>
<path d="M2593 2693 c9 -2 25 -2 35 0 9 3 1 5 -18 5 -19 0 -27 -2 -17 -5z"/>
<path d="M1944 2675 c-2 -5 -3 -336 -1 -735 l2 -725 285 -3 c370 -4 485 7 595
58 122 56 235 171 275 280 72 198 91 337 72 522 -23 215 -81 346 -209 471 -75
74 -103 92 -180 118 -59 19 -87 21 -449 22 -250 1 -388 -2 -390 -8z m676 -16
c18 -6 1 -8 -55 -7 -44 0 -121 0 -170 -1 -84 -1 -91 -3 -91 -21 0 -19 8 -20
146 -22 95 -2 48 -4 -135 -8 l-280 -5 -5 -175 c-3 -96 -7 -169 -8 -161 -2 12
-5 11 -15 -4 -8 -10 -16 -14 -19 -9 -9 14 -13 377 -4 402 l7 22 302 -1 c166
-1 313 -5 327 -10z m-302 -86 l-258 -3 0 -38 1 -37 13 30 12 30 7 -25 c5 -19
9 -22 16 -11 7 11 55 13 257 12 137 -1 251 -4 253 -7 2 -2 -107 -4 -242 -4
l-247 0 2 -572 3 -573 255 0 c140 0 235 -3 210 -7 -25 -3 -143 -7 -262 -7
l-218 -1 0 495 c0 461 -3 520 -25 484 -4 -6 -13 -8 -21 -5 -12 5 -14 -71 -14
-499 l0 -505 283 -3 282 -2 -287 -3 -288 -2 0 630 0 630 263 -2 262 -3 -257
-2z m345 -10 c-7 -2 -21 -2 -30 0 -10 3 -4 5 12 5 17 0 24 -2 18 -5z m362
-118 c21 -27 49 -73 62 -102 106 -230 97 -615 -21 -823 -22 -39 -96 -136 -96
-126 0 3 16 27 36 53 69 90 113 209 133 356 38 276 -23 532 -163 686 -27 29
-32 38 -15 25 15 -10 44 -41 64 -69z m-480 55 c41 -5 -12 -8 -162 -9 l-223 -1
0 -546 0 -546 230 4 c126 1 222 0 212 -4 -9 -4 -117 -7 -240 -7 l-222 -1 0
554 c0 304 3 556 7 560 9 8 323 6 398 -4z m118 -17 c-7 -2 -19 -2 -25 0 -7 3
-2 5 12 5 14 0 19 -2 13 -5z m-473 -54 c0 -5 -4 -9 -10 -9 -5 0 -10 7 -10 16
0 8 5 12 10 9 6 -3 10 -10 10 -16z m379 17 c-2 -3 -82 -6 -177 -7 l-172 -2 0
-489 0 -488 188 -3 187 -2 -197 -3 -198 -2 0 500 0 500 187 0 c102 0 184 -2
182 -4z m396 -16 c10 -11 16 -20 13 -20 -3 0 -13 9 -23 20 -10 11 -16 20 -13
20 3 0 13 -9 23 -20z m-342 3 c-7 -2 -21 -2 -30 0 -10 3 -4 5 12 5 17 0 24 -2
18 -5z m47 -40 c85 -38 153 -121 185 -224 26 -85 32 -318 10 -407 -32 -134
-103 -219 -205 -246 -36 -10 -47 -15 -30 -16 71 -5 -62 -21 -222 -27 l-178 -6
0 478 0 478 198 -5 c169 -5 203 -8 242 -25z m361 -66 c11 -22 18 -41 16 -44
-3 -2 -19 24 -36 59 -33 66 -14 52 20 -15z m-42 13 c11 -24 11 -24 -3 -6 -9
11 -16 24 -16 30 0 12 5 7 19 -24z m72 -185 c17 -73 17 -333 1 -390 l-12 -40
5 40 c21 196 13 350 -24 456 -31 89 -32 96 -7 44 13 -28 30 -77 37 -110z m20
34 c10 -40 18 -93 18 -118 -1 -44 -2 -44 -10 15 -7 54 -17 101 -36 169 -3 11
-2 17 2 13 4 -4 15 -39 26 -79z m-134 -1 c-3 -8 -6 -5 -6 6 -1 11 2 17 5 13 3
-3 4 -12 1 -19z m-920 -35 c-3 -10 -5 -2 -5 17 0 19 2 27 5 18 2 -10 2 -26 0
-35z m960 -20 c-3 -10 -5 -4 -5 12 0 17 2 24 5 18 2 -7 2 -21 0 -30z m-30 5
c-3 -8 -6 -5 -6 6 -1 11 2 17 5 13 3 -3 4 -12 1 -19z m10 -65 c-3 -10 -5 -4
-5 12 0 17 2 24 5 18 2 -7 2 -21 0 -30z m30 -20 c-3 -10 -5 -2 -5 17 0 19 2
27 5 18 2 -10 2 -26 0 -35z m-20 -125 c-2 -18 -4 -4 -4 32 0 36 2 50 4 33 2
-18 2 -48 0 -65z m30 30 c-2 -13 -4 -5 -4 17 -1 22 1 32 4 23 2 -10 2 -28 0
-40z m-10 -130 c-2 -13 -4 -5 -4 17 -1 22 1 32 4 23 2 -10 2 -28 0 -40z m100
-20 c-9 -107 -73 -274 -120 -315 l-21 -18 21 30 c57 83 113 248 113 334 0 23
3 41 6 41 4 0 4 -33 1 -72z m-130 0 c-3 -8 -6 -5 -6 6 -1 11 2 17 5 13 3 -3 4
-12 1 -19z m20 -55 c-3 -10 -5 -4 -5 12 0 17 2 24 5 18 2 -7 2 -21 0 -30z
m-30 5 c-3 -8 -6 -5 -6 6 -1 11 2 17 5 13 3 -3 4 -12 1 -19z m-10 -50 c-3 -7
-5 -2 -5 12 0 14 2 19 5 13 2 -7 2 -19 0 -25z m79 -66 c-15 -38 -33 -78 -42
-88 -10 -13 -8 -5 4 21 10 22 27 64 37 92 11 29 21 51 23 48 2 -2 -8 -35 -22
-73z m-999 -224 c-2 -29 -3 -8 -3 47 0 55 1 79 3 53 2 -26 2 -71 0 -100z m610
46 c-3 -3 -12 -4 -19 -1 -8 3 -5 6 6 6 11 1 17 -2 13 -5z m323 3 c0 -2 -10
-12 -22 -23 l-23 -19 19 23 c18 21 26 27 26 19z m-335 -168 c-22 -4 -166 -7
-320 -6 l-280 2 290 5 c160 3 304 6 320 7 23 0 21 -1 -10 -8z m28 -56 c-7 -2
-21 -2 -30 0 -10 3 -4 5 12 5 17 0 24 -2 18 -5z m-210 -10 c-78 -2 -208 -2
-290 0 -81 1 -17 3 142 3 160 0 226 -2 148 -3z"/>
<path d="M2563 1493 c9 -2 23 -2 30 0 6 3 -1 5 -18 5 -16 0 -22 -2 -12 -5z"/>
<path d="M1500 2026 c0 -14 -3 -31 -6 -40 -4 -11 2 -19 17 -25 21 -8 22 -10 7
-16 -10 -4 -18 -16 -18 -26 0 -14 7 -19 30 -19 17 0 30 -5 30 -10 0 -6 -13
-13 -30 -16 -21 -5 -30 -12 -30 -26 0 -18 5 -19 51 -13 41 6 50 4 47 -6 -3 -8
-26 -18 -51 -23 -36 -6 -47 -12 -47 -27 0 -22 1 -22 71 -9 77 15 87 -4 13 -25
-33 -9 -65 -18 -71 -20 -7 -3 -13 -12 -13 -21 0 -13 6 -15 33 -10 64 13 147
19 147 10 0 -5 -39 -18 -87 -29 -69 -16 -89 -24 -91 -39 -3 -16 0 -18 25 -11
15 4 55 11 88 16 33 5 70 11 83 14 14 4 21 1 20 -7 -2 -8 -48 -24 -108 -38
-83 -20 -106 -29 -108 -44 -3 -15 0 -18 19 -13 13 4 68 14 122 23 124 21 153
6 40 -21 -155 -36 -183 -45 -183 -61 0 -13 6 -15 28 -9 38 10 179 35 229 42
l41 5 4 97 c1 53 1 126 0 164 -3 57 -6 67 -22 67 -10 0 -22 5 -25 10 -4 6 5
10 19 10 20 0 26 5 26 23 0 20 -4 22 -40 19 -46 -5 -56 14 -12 23 74 16 68 41
-10 38 -60 -3 -79 12 -30 23 15 3 39 9 55 13 15 3 27 11 27 16 0 6 -57 11
-145 12 l-145 3 0 -24z"/>
<path d="M1757 1503 c-21 -7 -84 -22 -139 -33 -113 -23 -118 -25 -118 -45 0
-16 5 -16 155 16 49 10 100 19 112 19 24 0 37 18 31 42 -2 11 -10 11 -41 1z"/>
<path d="M1685 1415 c-49 -13 -111 -26 -137 -30 -38 -5 -48 -11 -48 -26 0 -23
-2 -23 80 -3 36 9 99 21 140 28 65 10 75 15 78 34 4 27 2 27 -113 -3z"/>
<path d="M1720 1353 c-218 -45 -220 -46 -220 -66 0 -14 5 -17 16 -13 9 4 74
18 143 32 69 14 130 30 136 35 20 20 -12 25 -75 12z"/>
<path d="M1735 1289 c-45 -11 -154 -34 -202 -44 -20 -4 -33 -13 -33 -22 0 -17
6 -16 150 11 123 23 145 30 148 49 4 19 -4 19 -63 6z"/>
<path d="M1745 1220 c-17 -7 -15 -9 12 -9 17 -1 35 4 38 9 7 12 -22 12 -50 0z"/>
</g>
</svg>
